<?xml version="1.0" encoding="UTF-8" standalone="no"?>
<!-- Created with Inkscape (http://www.inkscape.org/) -->

<svg
   xmlns:dc="http://purl.org/dc/elements/1.1/"
   xmlns:cc="http://creativecommons.org/ns#"
   xmlns:rdf="http://www.w3.org/1999/02/22-rdf-syntax-ns#"
   xmlns:svg="http://www.w3.org/2000/svg"
   xmlns="http://www.w3.org/2000/svg"
   xmlns:sodipodi="http://sodipodi.sourceforge.net/DTD/sodipodi-0.dtd"
   xmlns:inkscape="http://www.inkscape.org/namespaces/inkscape"
   width="198.9353"
   height="258.4353"
   id="svg3991"
   version="1.1"
   inkscape:version="0.48.4 r9939"
   sodipodi:docname="quantum_entanglement.svg">
  <defs
     id="defs3993">
    <filter
       inkscape:collect="always"
       id="filter4532"
       color-interpolation-filters="sRGB">
      <feGaussianBlur
         inkscape:collect="always"
         stdDeviation="2.75"
         id="feGaussianBlur4534" />
    </filter>
    <filter
       color-interpolation-filters="sRGB"
       inkscape:collect="always"
       id="filter4532-4">
      <feGaussianBlur
         inkscape:collect="always"
         stdDeviation="2.75"
         id="feGaussianBlur4534-1" />
    </filter>
    <filter
       color-interpolation-filters="sRGB"
       inkscape:collect="always"
       id="filter4532-4-3">
      <feGaussianBlur
         inkscape:collect="always"
         stdDeviation="2.75"
         id="feGaussianBlur4534-1-1" />
    </filter>
    <filter
       color-interpolation-filters="sRGB"
       inkscape:collect="always"
       id="filter4532-4-3-1">
      <feGaussianBlur
         inkscape:collect="always"
         stdDeviation="2.75"
         id="feGaussianBlur4534-1-1-3" />
    </filter>
    <filter
       color-interpolation-filters="sRGB"
       inkscape:collect="always"
       id="filter4532-4-3-1-2">
      <feGaussianBlur
         inkscape:collect="always"
         stdDeviation="2.75"
         id="feGaussianBlur4534-1-1-3-0" />
    </filter>
    <filter
       color-interpolation-filters="sRGB"
       inkscape:collect="always"
       id="filter4532-4-3-1-2-3">
      <feGaussianBlur
         inkscape:collect="always"
         stdDeviation="2.75"
         id="feGaussianBlur4534-1-1-3-0-6" />
    </filter>
    <filter
       color-interpolation-filters="sRGB"
       inkscape:collect="always"
       id="filter4532-3">
      <feGaussianBlur
         inkscape:collect="always"
         stdDeviation="2.75"
         id="feGaussianBlur4534-4" />
    </filter>
    <filter
       color-interpolation-filters="sRGB"
       inkscape:collect="always"
       id="filter4532-4-1">
      <feGaussianBlur
         inkscape:collect="always"
         stdDeviation="2.75"
         id="feGaussianBlur4534-1-15" />
    </filter>
    <filter
       color-interpolation-filters="sRGB"
       inkscape:collect="always"
       id="filter4532-4-3-0">
      <feGaussianBlur
         inkscape:collect="always"
         stdDeviation="2.75"
         id="feGaussianBlur4534-1-1-6" />
    </filter>
    <filter
       color-interpolation-filters="sRGB"
       inkscape:collect="always"
       id="filter4532-4-3-1-0">
      <feGaussianBlur
         inkscape:collect="always"
         stdDeviation="2.75"
         id="feGaussianBlur4534-1-1-3-5" />
    </filter>
    <filter
       color-interpolation-filters="sRGB"
       inkscape:collect="always"
       id="filter4532-4-3-1-2-2">
      <feGaussianBlur
         inkscape:collect="always"
         stdDeviation="2.75"
         id="feGaussianBlur4534-1-1-3-0-60" />
    </filter>
    <filter
       color-interpolation-filters="sRGB"
       inkscape:collect="always"
       id="filter4532-4-3-1-2-3-8">
      <feGaussianBlur
         inkscape:collect="always"
         stdDeviation="2.75"
         id="feGaussianBlur4534-1-1-3-0-6-1" />
    </filter>
    <filter
       inkscape:collect="always"
       id="filter4978"
       color-interpolation-filters="sRGB">
      <feGaussianBlur
         inkscape:collect="always"
         stdDeviation="4.0602468"
         id="feGaussianBlur4980" />
    </filter>
    <filter
       color-interpolation-filters="sRGB"
       inkscape:collect="always"
       id="filter4532-4-3-1-20">
      <feGaussianBlur
         inkscape:collect="always"
         stdDeviation="2.75"
         id="feGaussianBlur4534-1-1-3-8" />
    </filter>
    <filter
       color-interpolation-filters="sRGB"
       inkscape:collect="always"
       id="filter4532-4-3-6">
      <feGaussianBlur
         inkscape:collect="always"
         stdDeviation="2.75"
         id="feGaussianBlur4534-1-1-2" />
    </filter>
    <filter
       color-interpolation-filters="sRGB"
       inkscape:collect="always"
       id="filter4532-4-3-1-2-3-9">
      <feGaussianBlur
         inkscape:collect="always"
         stdDeviation="2.75"
         id="feGaussianBlur4534-1-1-3-0-6-9" />
    </filter>
    <filter
       color-interpolation-filters="sRGB"
       inkscape:collect="always"
       id="filter4532-4-3-1-2-9">
      <feGaussianBlur
         inkscape:collect="always"
         stdDeviation="2.75"
         id="feGaussianBlur4534-1-1-3-0-1" />
    </filter>
    <filter
       color-interpolation-filters="sRGB"
       inkscape:collect="always"
       id="filter4532-4-4">
      <feGaussianBlur
         inkscape:collect="always"
         stdDeviation="2.75"
         id="feGaussianBlur4534-1-5" />
    </filter>
    <filter
       inkscape:collect="always"
       id="filter4532-5"
       color-interpolation-filters="sRGB">
      <feGaussianBlur
         inkscape:collect="always"
         stdDeviation="2.75"
         id="feGaussianBlur4534-6" />
    </filter>
  </defs>
  <sodipodi:namedview
     inkscape:document-units="mm"
     pagecolor="#ffffff"
     bordercolor="#666666"
     borderopacity="1.0"
     inkscape:pageopacity="0.0"
     inkscape:pageshadow="2"
     inkscape:zoom="2"
     inkscape:cx="125.11668"
     inkscape:cy="88.818011"
     inkscape:current-layer="layer1"
     id="namedview3995"
     showgrid="true"
     inkscape:window-width="1077"
     inkscape:window-height="872"
     inkscape:window-x="565"
     inkscape:window-y="75"
     inkscape:window-maximized="0"
     showguides="true"
     inkscape:guide-bbox="true"
     units="mm"
     fit-margin-top="10"
     fit-margin-left="10"
     fit-margin-right="10"
     fit-margin-bottom="10">
    <inkscape:grid
       type="xygrid"
       id="grid4000"
       empspacing="5"
       visible="true"
       enabled="true"
       snapvisiblegridlinesonly="true"
       originx="-10.181954px"
       originy="-471.18198px" />
  </sodipodi:namedview>
  <metadata
     id="metadata3997">
    <rdf:RDF>
      <cc:Work
         rdf:about="">
        <dc:format>image/svg+xml</dc:format>
        <dc:type
           rdf:resource="http://purl.org/dc/dcmitype/StillImage" />
        <dc:title></dc:title>
      </cc:Work>
    </rdf:RDF>
  </metadata>
  <g
     inkscape:label="Layer 1"
     inkscape:groupmode="layer"
     id="layer1"
     transform="translate(-10.181954,-14.477224)">
    <g
       id="g5057"
       transform="translate(-142.5,-137)">
      <path
         transform="matrix(0.95765057,0,0,0.95765056,157.38455,133.60573)"
         d="m 155,124.09448 c 0,30.37566 -24.62434,55 -55,55 -30.375661,0 -55,-24.62434 -55,-55 0,-30.375659 24.624339,-54.999998 55,-54.999998 30.37566,0 55,24.624339 55,54.999998 z"
         sodipodi:ry="55"
         sodipodi:rx="55"
         sodipodi:cy="124.09448"
         sodipodi:cx="100"
         id="path4002-3"
         style="opacity:0.8;fill:none;stroke:#000000;stroke-width:7.4000001;stroke-linecap:round;stroke-miterlimit:4;stroke-opacity:1;stroke-dasharray:none;filter:url(#filter4532-5)"
         sodipodi:type="arc" />
      <path
         transform="matrix(0.95765057,0,0,0.95765056,157.88455,193.10572)"
         d="m 155,124.09448 c 0,30.37566 -24.62434,55 -55,55 -30.375661,0 -55,-24.62434 -55,-55 0,-30.375659 24.624339,-54.999998 55,-54.999998 30.37566,0 55,24.624339 55,54.999998 z"
         sodipodi:ry="55"
         sodipodi:rx="55"
         sodipodi:cy="124.09448"
         sodipodi:cx="100"
         id="path4002-4-5"
         style="opacity:0.8;fill:none;stroke:#000000;stroke-width:7.4000001;stroke-linecap:round;stroke-miterlimit:4;stroke-opacity:1;stroke-dasharray:none;filter:url(#filter4532-4-4)"
         sodipodi:type="arc" />
      <path
         transform="matrix(0.4612268,0,0,0.4612268,207.11046,194.62566)"
         d="m 155,124.09448 c 0,30.37566 -24.62434,55 -55,55 -30.375661,0 -55,-24.62434 -55,-55 0,-30.375659 24.624339,-54.999998 55,-54.999998 30.37566,0 55,24.624339 55,54.999998 z"
         sodipodi:ry="55"
         sodipodi:rx="55"
         sodipodi:cy="124.09448"
         sodipodi:cx="100"
         id="path4002-4-1-4-0-4"
         style="opacity:0.8;fill:none;stroke:#000000;stroke-width:7.4000001;stroke-linecap:round;stroke-miterlimit:4;stroke-opacity:1;stroke-dasharray:none;filter:url(#filter4532-4-3-1-2-9)"
         sodipodi:type="arc" />
      <path
         transform="matrix(0.4612268,0,0,0.4612268,205.61046,257.12566)"
         d="m 155,124.09448 c 0,30.37566 -24.62434,55 -55,55 -30.375661,0 -55,-24.62434 -55,-55 0,-30.375659 24.624339,-54.999998 55,-54.999998 30.37566,0 55,24.624339 55,54.999998 z"
         sodipodi:ry="55"
         sodipodi:rx="55"
         sodipodi:cy="124.09448"
         sodipodi:cx="100"
         id="path4002-4-1-4-0-2-3"
         style="opacity:0.8;fill:none;stroke:#000000;stroke-width:7.4000001;stroke-linecap:round;stroke-miterlimit:4;stroke-opacity:1;stroke-dasharray:none;filter:url(#filter4532-4-3-1-2-3-9)"
         sodipodi:type="arc" />
      <path
         transform="matrix(0.67827471,0,0,0.67827471,185.07889,167.51798)"
         d="m 155,124.09448 c 0,30.37566 -24.62434,55 -55,55 -30.375661,0 -55,-24.62434 -55,-55 0,-30.375659 24.624339,-54.999998 55,-54.999998 30.37566,0 55,24.624339 55,54.999998 z"
         sodipodi:ry="55"
         sodipodi:rx="55"
         sodipodi:cy="124.09448"
         sodipodi:cx="100"
         id="path4002-4-1-2"
         style="opacity:0.8;fill:none;stroke:#000000;stroke-width:7.4000001;stroke-linecap:round;stroke-miterlimit:4;stroke-opacity:1;stroke-dasharray:none;filter:url(#filter4532-4-3-6)"
         sodipodi:type="arc" />
      <path
         transform="matrix(0.67827471,0,0,0.67827471,183.57889,229.51798)"
         d="m 155,124.09448 c 0,30.37566 -24.62434,55 -55,55 -30.375661,0 -55,-24.62434 -55,-55 0,-30.375659 24.624339,-54.999998 55,-54.999998 30.37566,0 55,24.624339 55,54.999998 z"
         sodipodi:ry="55"
         sodipodi:rx="55"
         sodipodi:cy="124.09448"
         sodipodi:cx="100"
         id="path4002-4-1-4-9"
         style="opacity:0.8;fill:none;stroke:#000000;stroke-width:7.4000001;stroke-linecap:round;stroke-miterlimit:4;stroke-opacity:1;stroke-dasharray:none;filter:url(#filter4532-4-3-1-20)"
         sodipodi:type="arc" />
    </g>
    <path
       sodipodi:type="arc"
       style="opacity:0.8;fill:none;stroke:#ff0000;stroke-width:7.4000001;stroke-linecap:round;stroke-miterlimit:4;stroke-opacity:1;stroke-dasharray:none;filter:url(#filter4532)"
       id="path4002"
       sodipodi:cx="100"
       sodipodi:cy="124.09448"
       sodipodi:rx="55"
       sodipodi:ry="55"
       d="m 155,124.09448 c 0,30.37566 -24.62434,55 -55,55 -30.375661,0 -55,-24.62434 -55,-55 0,-30.375659 24.624339,-54.999998 55,-54.999998 30.37566,0 55,24.624339 55,54.999998 z"
       transform="matrix(0.95765057,0,0,0.95765056,12.38455,-6.394274)" />
    <path
       sodipodi:type="arc"
       style="opacity:0.8;fill:none;stroke:#0000ff;stroke-width:7.4000001;stroke-linecap:round;stroke-miterlimit:4;stroke-opacity:1;stroke-dasharray:none;filter:url(#filter4532-4)"
       id="path4002-4"
       sodipodi:cx="100"
       sodipodi:cy="124.09448"
       sodipodi:rx="55"
       sodipodi:ry="55"
       d="m 155,124.09448 c 0,30.37566 -24.62434,55 -55,55 -30.375661,0 -55,-24.62434 -55,-55 0,-30.375659 24.624339,-54.999998 55,-54.999998 30.37566,0 55,24.624339 55,54.999998 z"
       transform="matrix(0.95765057,0,0,0.95765056,12.88455,53.10572)" />
    <path
       sodipodi:type="arc"
       style="opacity:0.8;fill:none;stroke:#0000ff;stroke-width:7.4000001;stroke-linecap:round;stroke-miterlimit:4;stroke-opacity:1;stroke-dasharray:none;filter:url(#filter4532-4-3-1-2)"
       id="path4002-4-1-4-0"
       sodipodi:cx="100"
       sodipodi:cy="124.09448"
       sodipodi:rx="55"
       sodipodi:ry="55"
       d="m 155,124.09448 c 0,30.37566 -24.62434,55 -55,55 -30.375661,0 -55,-24.62434 -55,-55 0,-30.375659 24.624339,-54.999998 55,-54.999998 30.37566,0 55,24.624339 55,54.999998 z"
       transform="matrix(0.4612268,0,0,0.4612268,62.110455,54.625658)" />
    <path
       sodipodi:type="arc"
       style="opacity:0.8;fill:none;stroke:#ff0000;stroke-width:7.4000001;stroke-linecap:round;stroke-miterlimit:4;stroke-opacity:1;stroke-dasharray:none;filter:url(#filter4532-4-3-1-2-3)"
       id="path4002-4-1-4-0-2"
       sodipodi:cx="100"
       sodipodi:cy="124.09448"
       sodipodi:rx="55"
       sodipodi:ry="55"
       d="m 155,124.09448 c 0,30.37566 -24.62434,55 -55,55 -30.375661,0 -55,-24.62434 -55,-55 0,-30.375659 24.624339,-54.999998 55,-54.999998 30.37566,0 55,24.624339 55,54.999998 z"
       transform="matrix(0.4612268,0,0,0.4612268,60.61046,117.12566)" />
    <path
       sodipodi:type="arc"
       style="opacity:0.8;fill:none;stroke:#00ff00;stroke-width:7.4000001;stroke-linecap:round;stroke-miterlimit:4;stroke-opacity:1;stroke-dasharray:none;filter:url(#filter4532-4-3)"
       id="path4002-4-1"
       sodipodi:cx="100"
       sodipodi:cy="124.09448"
       sodipodi:rx="55"
       sodipodi:ry="55"
       d="m 155,124.09448 c 0,30.37566 -24.62434,55 -55,55 -30.375661,0 -55,-24.62434 -55,-55 0,-30.375659 24.624339,-54.999998 55,-54.999998 30.37566,0 55,24.624339 55,54.999998 z"
       transform="matrix(0.67827471,0,0,0.67827471,40.078886,27.517978)" />
    <path
       sodipodi:type="arc"
       style="opacity:0.8;fill:none;stroke:#00ff00;stroke-width:7.4000001;stroke-linecap:round;stroke-miterlimit:4;stroke-opacity:1;stroke-dasharray:none;filter:url(#filter4532-4-3-1)"
       id="path4002-4-1-4"
       sodipodi:cx="100"
       sodipodi:cy="124.09448"
       sodipodi:rx="55"
       sodipodi:ry="55"
       d="m 155,124.09448 c 0,30.37566 -24.62434,55 -55,55 -30.375661,0 -55,-24.62434 -55,-55 0,-30.375659 24.624339,-54.999998 55,-54.999998 30.37566,0 55,24.624339 55,54.999998 z"
       transform="matrix(0.67827471,0,0,0.67827471,38.57889,89.51798)" />
  </g>
</svg>
