<?xml version="1.0" encoding="UTF-8" standalone="no"?>
<!-- Created with Inkscape (http://www.inkscape.org/) -->

<svg
   xmlns:dc="http://purl.org/dc/elements/1.1/"
   xmlns:cc="http://creativecommons.org/ns#"
   xmlns:rdf="http://www.w3.org/1999/02/22-rdf-syntax-ns#"
   xmlns:svg="http://www.w3.org/2000/svg"
   xmlns="http://www.w3.org/2000/svg"
   xmlns:xlink="http://www.w3.org/1999/xlink"
   version="1.1"
   width="108.624mm"
   height="213.14101mm"
   viewBox="0 0 391.753 768.694"
   id="svg2"
   xml:space="preserve"
   style="fill-rule:evenodd"><metadata
   id="metadata475"><rdf:RDF><cc:Work
       rdf:about=""><dc:format>image/svg+xml</dc:format><dc:type
         rdf:resource="http://purl.org/dc/dcmitype/StillImage" /><dc:title></dc:title></cc:Work></rdf:RDF></metadata>
 <defs
   id="defs4"><style
     type="text/css"
     id="style153" /><linearGradient
     x1="223.79601"
     y1="-97.232697"
     x2="429.052"
     y2="-97.232697"
     id="id0"
     gradientUnits="userSpaceOnUse">
   <stop
   id="stop156"
   style="stop-color:#838281;stop-opacity:1"
   offset="0" />
   <stop
   id="stop158"
   style="stop-color:#838281;stop-opacity:1"
   offset="1" />
  </linearGradient><linearGradient
     x1="225.41499"
     y1="-95.070999"
     x2="430.673"
     y2="-95.070999"
     id="id1"
     xlink:href="#id0"
     gradientUnits="userSpaceOnUse">
  </linearGradient><linearGradient
     x1="148.355"
     y1="179.55"
     x2="148.355"
     y2="163.17999"
     id="id2"
     gradientUnits="userSpaceOnUse">
   <stop
   id="stop162"
   style="stop-color:#ffffff;stop-opacity:1"
   offset="0" />
   <stop
   id="stop164"
   style="stop-color:#d894b3;stop-opacity:1"
   offset="0.0901961" />
   <stop
   id="stop166"
   style="stop-color:#b12967;stop-opacity:1"
   offset="1" />
  </linearGradient><linearGradient
     x1="195.82001"
     y1="646.19397"
     x2="195.82001"
     y2="555.20001"
     id="id3"
     gradientUnits="userSpaceOnUse">
   <stop
   id="stop169"
   style="stop-color:#1f1a17;stop-opacity:1"
   offset="0" />
   <stop
   id="stop171"
   style="stop-color:#ffffff;stop-opacity:1"
   offset="1" />
  </linearGradient><linearGradient
     x1="236.436"
     y1="218.17101"
     x2="236.436"
     y2="156.86301"
     id="id4"
     gradientUnits="userSpaceOnUse">
   <stop
   id="stop174"
   style="stop-color:#00923f;stop-opacity:1"
   offset="0" />
   <stop
   id="stop176"
   style="stop-color:#7fc99f;stop-opacity:1"
   offset="0.721569" />
   <stop
   id="stop178"
   style="stop-color:#ffffff;stop-opacity:1"
   offset="1" />
  </linearGradient><linearGradient
     x1="235.814"
     y1="323.40399"
     x2="235.814"
     y2="262.09"
     id="id5"
     gradientUnits="userSpaceOnUse">
   <stop
   id="stop181"
   style="stop-color:#3300cc;stop-opacity:1"
   offset="0" />
   <stop
   id="stop183"
   style="stop-color:#997fe5;stop-opacity:1"
   offset="0.721569" />
   <stop
   id="stop185"
   style="stop-color:#ffffff;stop-opacity:1"
   offset="1" />
  </linearGradient><linearGradient
     x1="150.621"
     y1="640.53198"
     x2="150.621"
     y2="579.22498"
     id="id6"
     gradientUnits="userSpaceOnUse">
   <stop
   id="stop188"
   style="stop-color:#974578;stop-opacity:1"
   offset="0" />
   <stop
   id="stop190"
   style="stop-color:#cba2bb;stop-opacity:1"
   offset="0.721569" />
   <stop
   id="stop192"
   style="stop-color:#ffffff;stop-opacity:1"
   offset="1" />
  </linearGradient><linearGradient
     x1="149.259"
     y1="323.40399"
     x2="149.259"
     y2="262.09"
     id="id7"
     gradientUnits="userSpaceOnUse">
   <stop
   id="stop195"
   style="stop-color:#ff6600;stop-opacity:1"
   offset="0" />
   <stop
   id="stop197"
   style="stop-color:#ffb37f;stop-opacity:1"
   offset="0.721569" />
   <stop
   id="stop199"
   style="stop-color:#ffffff;stop-opacity:1"
   offset="1" />
  </linearGradient><linearGradient
     x1="322.371"
     y1="218.17101"
     x2="322.371"
     y2="156.86301"
     id="id8"
     gradientUnits="userSpaceOnUse">
   <stop
   id="stop202"
   style="stop-color:#fff500;stop-opacity:1"
   offset="0" />
   <stop
   id="stop204"
   style="stop-color:#fffa7f;stop-opacity:1"
   offset="0.721569" />
   <stop
   id="stop206"
   style="stop-color:#ffffff;stop-opacity:1"
   offset="1" />
  </linearGradient><linearGradient
     x1="62.7033"
     y1="431.172"
     x2="62.7033"
     y2="369.85699"
     id="id9"
     gradientUnits="userSpaceOnUse">
   <stop
   id="stop209"
   style="stop-color:#006633;stop-opacity:1"
   offset="0" />
   <stop
   id="stop211"
   style="stop-color:#7fb399;stop-opacity:1"
   offset="0.72941202" />
   <stop
   id="stop213"
   style="stop-color:#ffffff;stop-opacity:1"
   offset="1" />
  </linearGradient><linearGradient
     x1="238.53799"
     y1="639.698"
     x2="238.53799"
     y2="578.38898"
     id="id10"
     xlink:href="#id9"
     gradientUnits="userSpaceOnUse">
  </linearGradient><linearGradient
     x1="326.45599"
     y1="639.867"
     x2="326.45599"
     y2="578.55798"
     id="id11"
     gradientUnits="userSpaceOnUse">
   <stop
   id="stop217"
   style="stop-color:#00ccff;stop-opacity:1"
   offset="0" />
   <stop
   id="stop219"
   style="stop-color:#7fe5ff;stop-opacity:1"
   offset="0.72941202" />
   <stop
   id="stop221"
   style="stop-color:#ffffff;stop-opacity:1"
   offset="1" />
  </linearGradient><linearGradient
     x1="62.7033"
     y1="323.40399"
     x2="62.7033"
     y2="262.09"
     id="id12"
     gradientUnits="userSpaceOnUse">
   <stop
   id="stop224"
   style="stop-color:#990000;stop-opacity:1"
   offset="0" />
   <stop
   id="stop226"
   style="stop-color:#cc7f7f;stop-opacity:1"
   offset="0.72941202" />
   <stop
   id="stop228"
   style="stop-color:#ffffff;stop-opacity:1"
   offset="1" />
  </linearGradient><linearGradient
     x1="62.7033"
     y1="640.70203"
     x2="62.7033"
     y2="579.39398"
     id="id13"
     gradientUnits="userSpaceOnUse">
   <stop
   id="stop231"
   style="stop-color:#ff0000;stop-opacity:1"
   offset="0" />
   <stop
   id="stop233"
   style="stop-color:#ff7f7f;stop-opacity:1"
   offset="0.72941202" />
   <stop
   id="stop235"
   style="stop-color:#ffffff;stop-opacity:1"
   offset="1" />
  </linearGradient><linearGradient
     x1="322.371"
     y1="323.40399"
     x2="322.371"
     y2="262.09"
     id="id14"
     gradientUnits="userSpaceOnUse">
   <stop
   id="stop238"
   style="stop-color:#003333;stop-opacity:1"
   offset="0" />
   <stop
   id="stop240"
   style="stop-color:#7f9999;stop-opacity:1"
   offset="0.74901998" />
   <stop
   id="stop242"
   style="stop-color:#ffffff;stop-opacity:1"
   offset="1" />
  </linearGradient><linearGradient
     x1="62.7033"
     y1="218.17101"
     x2="62.7033"
     y2="156.86301"
     id="id15"
     gradientUnits="userSpaceOnUse">
   <stop
   id="stop245"
   style="stop-color:#000000;stop-opacity:1"
   offset="0" />
   <stop
   id="stop247"
   style="stop-color:#7f7f7f;stop-opacity:1"
   offset="0.85882401" />
   <stop
   id="stop249"
   style="stop-color:#ffffff;stop-opacity:1"
   offset="1" />
  </linearGradient><linearGradient
     x1="173.216"
     y1="757.45697"
     x2="210.65601"
     y2="716.98297"
     id="id16"
     gradientUnits="userSpaceOnUse">
   <stop
   id="stop252"
   style="stop-color:#1f1a17;stop-opacity:1"
   offset="0" />
   <stop
   id="stop254"
   style="stop-color:#4d4948;stop-opacity:1"
   offset="1" />
  </linearGradient><linearGradient
     x1="167.96001"
     y1="299.25299"
     x2="373.21799"
     y2="299.25299"
     id="id17"
     xlink:href="#id0"
     gradientUnits="userSpaceOnUse">
  </linearGradient></defs>
<symbol
   viewBox="223.796 -277.071 205.256 359.676"
   id="x24-24-0">
 <path
   d="m 429.052,82.6051 -205.256,-359.676 205.256,0 0,359.676 z m 0,0 z"
   id="path258"
   style="fill:url(#id0);fill-rule:nonzero" />
</symbol>
<symbol
   viewBox="225.415 -274.909 205.258 359.676"
   id="Symbol1">
 <path
   d="m 430.673,84.7668 -205.258,-359.676 205.258,0 0,359.676 z m 0,0 z"
   id="path261"
   style="fill:url(#id1);fill-rule:nonzero" />
</symbol>
 <g
   id="Ebene_x0020_1">
  <metadata
   id="CorelCorpID_0Corel-Layer" />
  <path
   d="m 28.2317,0.36065 335.29,0 c 15.4405,0 27.871,12.4302 27.871,27.8707 l 0,712.231 c 0,15.4416 -12.4305,27.8707 -27.871,27.8707 l -335.29,0 c -15.4405,0 -27.871,-12.4291 -27.871,-27.8707 l 0,-712.231 c 0,-15.4405 12.4305,-27.8707 27.871,-27.8707 z m 0,0 z"
   id="path265"
   style="fill:#dededd;fill-rule:nonzero;stroke:#1f1a17;stroke-width:0.72130001" />
  <path
   d="m 33.0878,6.02105 326.845,0 c 15.442,0 27.8721,12.4302 27.8721,27.8721 l 0,702.733 c 0,15.4405 -12.4302,27.871 -27.8721,27.871 l -326.845,0 c -15.4416,0 -27.8707,-12.4305 -27.8707,-27.871 l 0,-702.733 c 0,-15.442 12.4291,-27.8721 27.8707,-27.8721 z m 0,0 z"
   id="path267"
   style="fill:#1f1a17;fill-rule:nonzero;stroke:#1f1a17;stroke-width:0.72130001" />
  <path
   d="m 229.264,715.017 c 0,20.4914 -16.6137,37.1051 -37.1051,37.1051 -20.4954,0 -37.1102,-16.6137 -37.1102,-37.1051 0,-20.4954 16.6148,-37.1102 37.1102,-37.1102 20.4914,0 37.1051,16.6148 37.1051,37.1102 z m 0,0 z"
   id="path269"
   style="fill:#1f1a17;fill-rule:nonzero;stroke:#4d4948;stroke-width:0.72130001" />
  <path
   d="m 228.028,723.664 c -22.2067,8.79157 -46.2707,9.67732 -72.1834,2.66448 4.47314,14.4466 19.0892,24.447 35.7437,24.447 17.7865,0 33.0846,-11.3771 36.4397,-27.1115 z m 0,0 z"
   id="path271"
   style="fill:url(#id16);fill-rule:nonzero;stroke:#1f1a17;stroke-width:0.72130001" />
  <path
   d="m 180.689,701.975 22.9355,0 c 0.86917,0 1.57532,0.7011 1.57532,1.57135 l 0,22.9355 c 0,0.87025 -0.70615,1.57532 -1.57532,1.57532 l -22.9355,0 c -0.87025,0 -1.57135,-0.70507 -1.57135,-1.57532 l 0,-22.9355 c 0,-0.87025 0.7011,-1.57135 1.57135,-1.57135 z m 0,0 z"
   id="path273"
   style="fill:none;stroke:#c2c1c1;stroke-width:0.72130001" />
  <path
   d="m 127.679,161.718 41.1906,0 c 5.38306,0 9.71663,4.44826 9.71663,9.97486 l 0,40.6691 c 0,5.5266 -4.33357,9.9745 -9.71663,9.9745 l -41.1906,0 c -5.38162,0 -9.71014,-4.4479 -9.71014,-9.9745 l 0,-40.6691 c 0,-5.5266 4.32852,-9.97486 9.71014,-9.97486 z m 0,0 z"
   id="path275"
   style="fill:#ffffff;fill-rule:nonzero;stroke:#1f1a17;stroke-width:0.69208801" />
  <path
   d="m 127.312,163.18 42.0861,0 c 4.39308,0 7.99128,3.77745 7.99128,8.39341 l 0,7.97722 -58.0686,0 0,-7.97722 c 0,-4.61596 3.59785,-8.39341 7.99128,-8.39341 z m 0,0 z"
   id="path277"
   style="fill:url(#id2);fill-rule:nonzero;stroke:#ffffff;stroke-width:0.71661198" />
  <polygon
   points="376.354,555.2 376.354,646.194 15.2862,646.194 15.2862,555.2 "
   id="polygon279"
   style="fill:url(#id3);fill-rule:nonzero;stroke:#1f1a17;stroke-width:0.72130001" />
  <path
   d="m 160.769,53.8415 71.4671,0 c 1.55584,0 2.80802,1.25326 2.80802,2.80802 l 0,5.39316 c 0,1.55476 -1.25218,2.80802 -2.80802,2.80802 l -71.4671,0 c -1.55476,0 -2.80802,-1.25326 -2.80802,-2.80802 l 0,-5.39316 c 0,-1.55476 1.25326,-2.80802 2.80802,-2.80802 z m 0,0 z"
   id="path281"
   style="fill:#1f1a17;fill-rule:nonzero;stroke:#383431;stroke-width:0.72130001" />
  <path
   d="m 160.372,62.2103 74.9063,0 -2.05751,1.65538 c -0.75051,0.606974 -1.65502,1.09421 -2.65402,1.42637 -0.95897,0.313044 -2.00738,0.487238 -3.09654,0.487238 l -61.92,0 c -1.08772,0 -2.13757,-0.174194 -3.09185,-0.487238 -1.00369,-0.332159 -1.9082,-0.819397 -2.65763,-1.42637 l -2.05859,-1.65538 2.62986,0 z m 0,0 z"
   id="path283"
   style="fill:#72706f;fill-rule:nonzero;stroke:#383431;stroke-width:0.72130001" />
  <path
   d="m 134.468,132.898 c 0,1.0293 -0.8295,1.86384 -1.85879,1.86384 -1.02785,0 -1.85735,-0.83454 -1.85735,-1.86384 0,-1.02425 0.82949,-1.85879 1.85735,-1.85879 1.0293,0 1.85879,0.83454 1.85879,1.85879 z m 0,0 z"
   id="path285"
   style="fill:#ffffff;fill-rule:nonzero;stroke:#ffffff;stroke-width:0.27481499" />
  <path
   d="m 125.066,127.202 c 4.50777,-2.32547 9.30802,-2.32547 14.3972,0"
   id="path287"
   style="fill:none;stroke:#ffffff;stroke-width:0.72130001" />
  <path
   d="m 123.908,124.135 c 5.39208,-2.78242 11.1376,-2.78242 17.2254,0"
   id="path289"
   style="fill:none;stroke:#ffffff;stroke-width:0.72130001" />
  <path
   d="m 127.452,129.583 c 2.98582,-1.54575 6.1718,-1.54575 9.54713,0"
   id="path291"
   style="fill:none;stroke:#ffffff;stroke-width:0.72130001" />
  <polygon
   points="49.2652,124.732 49.2652,134.762 45.5425,134.762 45.5425,124.732 "
   id="polygon293"
   style="fill:#ffffff;fill-rule:nonzero" />
  <polygon
   points="44.8364,126.218 44.8364,134.762 41.0791,134.762 41.0791,126.218 "
   id="polygon295"
   style="fill:#ffffff;fill-rule:nonzero" />
  <polygon
   points="40.3744,127.311 40.3744,134.761 36.6518,134.761 36.6518,127.311 "
   id="polygon297"
   style="fill:#ffffff;fill-rule:nonzero" />
  <polygon
   points="35.9456,128.693 35.9456,134.762 32.1884,134.762 32.1884,128.693 "
   id="polygon299"
   style="fill:#ffffff;fill-rule:nonzero" />
  <polygon
   points="31.4822,132.097 31.4822,134.762 27.7596,134.762 27.7596,132.097 "
   id="polygon301"
   style="fill:#ffffff;fill-rule:nonzero" />
  <g
   transform="translate(1.30588,-240.887)"
   id="g303">
   <text
   x="54.312099"
   y="375.46399"
   id="text305"
   style="font-size:14.24960041px;font-weight:normal;fill:#ffffff;font-family:Arial">V</text>

   <text
   x="63.885601"
   y="375.46399"
   id="text307"
   style="font-size:14.24960041px;font-weight:normal;fill:#ffffff;font-family:Arial">odafone</text>

  </g>
  <g
   transform="translate(123.043,-240.887)"
   id="g309">
   <text
   x="54.312099"
   y="375.46399"
   id="text311"
   style="font-size:15.82499981px;font-weight:normal;fill:#ffffff;font-family:Arial">11:45</text>

  </g>
  <polygon
   points="367.894,124.583 367.894,134.762 348.288,134.762 348.288,124.583 "
   id="polygon313"
   style="fill:#ffffff;fill-rule:nonzero" />
  <polygon
   points="371.07,126.492 371.07,132.754 368.332,132.754 368.332,126.492 "
   id="polygon315"
   style="fill:#ffffff;fill-rule:nonzero" />
  <path
   d="m 146.8,208.867 0,5.81224 -21.9264,0 c 0.24308,-2.19564 0.94959,-4.27731 2.14262,-6.24538 1.1851,-1.96771 3.53257,-4.5734 7.02763,-7.82539 2.82641,-2.6212 4.55104,-4.40642 5.18903,-5.34087 0.85871,-1.29185 1.29185,-2.56819 1.29185,-3.82938 0,-1.39031 -0.37255,-2.46144 -1.12451,-3.21375 -0.75232,-0.75232 -1.78558,-1.12451 -3.10736,-1.12451 -1.307,0 -2.34026,0.39527 -3.1153,1.17752 -0.7671,0.79018 -1.21539,2.09718 -1.33693,3.92063 l -6.23023,-0.6232 c 0.37255,-3.44168 1.53493,-5.91069 3.49506,-7.41497 1.96013,-1.49706 4.40642,-2.24901 7.3468,-2.24901 3.22133,0 5.75129,0.87385 7.58988,2.60606 1.83859,1.73978 2.75789,3.89755 2.75789,6.48052 0,1.4664 -0.2658,2.86428 -0.79018,4.194 -0.52403,1.32936 -1.35965,2.72002 -2.49931,4.17092 -0.75989,0.9651 -2.12747,2.35541 -4.09518,4.16371 -1.97528,1.80794 -3.2289,3.01612 -3.75329,3.60866 -0.52439,0.59254 -0.95717,1.16995 -1.28391,1.7322 l 12.4219,0 z m 14.8,-26.9561 c 3.16831,0 5.63732,1.13208 7.41533,3.38831 2.11954,2.66701 3.18346,7.09615 3.18346,13.2885 0,6.16892 -1.07149,10.606 -3.20618,13.3109 -1.76286,2.22593 -4.22429,3.33529 -7.39261,3.33529 -3.16795,0 -5.72857,-1.21575 -7.67355,-3.66204 -1.94499,-2.43872 -2.9173,-6.79212 -2.9173,-13.0526 0,-6.14656 1.07113,-10.5681 3.20618,-13.2654 1.7625,-2.22593 4.22429,-3.34287 7.38467,-3.34287 z m 0,5.18903 c -0.75195,0 -1.42817,0.24308 -2.02072,0.72202 -0.59291,0.48616 -1.05634,1.35208 -1.38309,2.59812 -0.42521,1.61824 -0.64556,4.33826 -0.64556,8.16764 0,3.82902 0.19763,6.4578 0.5774,7.88597 0.38733,1.43611 0.87349,2.3857 1.45883,2.86428 0.59254,0.47101 1.26119,0.71445 2.01315,0.71445 0.75989,0 1.43611,-0.24344 2.02866,-0.7296 0.59254,-0.47858 1.05598,-1.34486 1.38273,-2.59055 0.42556,-1.60309 0.64592,-4.31554 0.64592,-8.14456 0,-3.82938 -0.19763,-6.45816 -0.5774,-7.89391 -0.3877,-1.42853 -0.87385,-2.3857 -1.45883,-2.87186 -0.59255,-0.47894 -1.26119,-0.72202 -2.02108,-0.72202 z"
   id="path317"
   style="fill:#1f1a17;fill-rule:nonzero" />
  <g
   transform="translate(70.8753,-200.212)"
   id="g319">
   <text
   x="54.312099"
   y="375.46399"
   id="text321"
   style="font-size:13.72990036px;font-weight:normal;fill:#ffffff;font-family:Arial">Monday</text>

   <text
   x="234.75999"
   y="545.29999"
   id="text323"
   style="font-size:16.40920067px;font-weight:normal;fill:#ffffff;font-family:Arial">Clock</text>

   <text
   x="148.45599"
   y="545.29999"
   id="text325"
   style="font-size:16.40920067px;font-weight:normal;fill:#ffffff;font-family:Arial">Stock</text>

  </g>
  <text
   x="117.269"
   y="345.03201"
   id="text327"
   style="font-size:16.40920067px;font-weight:normal;fill:#ffffff;font-family:Arial">Weather</text>

  <text
   x="40.002899"
   y="345.03201"
   id="text329"
   style="font-size:16.40920067px;font-weight:normal;fill:#ffffff;font-family:Arial">Music</text>

  <text
   x="34.6278"
   y="450.32401"
   id="text331"
   style="font-size:16.40920067px;font-weight:normal;fill:#ffffff;font-family:Arial">Camera</text>

  <g
   transform="translate(-16.6408,287.274)"
   id="g333">
   <text
   x="54.312099"
   y="375.46399"
   id="text335"
   style="font-size:16.40920067px;font-weight:normal;fill:#ffffff;font-family:Arial">Phone</text>

  </g>
  <g
   transform="translate(72.7526,287.703)"
   id="g337">
   <text
   x="54.312099"
   y="375.46399"
   id="text339"
   style="font-size:16.40920067px;font-weight:normal;fill:#ffffff;font-family:Arial">E-Mail</text>

  </g>
  <g
   transform="translate(158.577,288.32)"
   id="g341">
   <text
   x="54.312099"
   y="375.46399"
   id="text343"
   style="font-size:16.40920067px;font-weight:normal;fill:#ffffff;font-family:Arial">Adress</text>

  </g>
  <g
   transform="translate(250.282,287.792)"
   id="g345">
   <text
   x="54.312099"
   y="375.46399"
   id="text347"
   style="font-size:16.40920067px;font-weight:normal;fill:#ffffff;font-family:Arial">Safari</text>

  </g>
  <g
   transform="translate(59.7697,-134.503)"
   id="g349">
   <text
   x="54.312099"
   y="375.46399"
   id="text351"
   style="font-size:16.40920067px;font-weight:normal;fill:#ffffff;font-family:Arial">Calendar</text>

  </g>
  <g
   transform="translate(156.811,-134.673)"
   id="g353">
   <text
   x="54.312099"
   y="375.46399"
   id="text355"
   style="font-size:16.40920067px;font-weight:normal;fill:#ffffff;font-family:Arial">iT</text>

   <text
   x="68.027298"
   y="375.46399"
   id="text357"
   style="font-size:16.40920067px;font-weight:normal;fill:#ffffff;font-family:Arial">unes</text>

   <text
   x="140.039"
   y="375.46399"
   id="text359"
   style="font-size:16.40920067px;font-weight:normal;fill:#ffffff;font-family:Arial">iB</text>

   <text
   x="154.79401"
   y="375.46399"
   id="text361"
   style="font-size:16.40920067px;font-weight:normal;fill:#ffffff;font-family:Arial">ooks</text>

  </g>
  <g
   transform="translate(-13.6326,-134.711)"
   id="g363">
   <text
   x="54.312099"
   y="375.46399"
   id="text365"
   style="font-size:16.40920067px;font-weight:normal;fill:#ffffff;font-family:Arial">News</text>

  </g>
  <path
   d="m 78.1143,218.171 -30.8276,0 c -8.37934,0 -15.2382,-6.8574 -15.2382,-15.2418 l 0,-30.8276 c 0,-8.37934 6.85884,-15.2385 15.2382,-15.2385 l 30.8276,0 c 8.38475,0 15.2436,6.8592 15.2436,15.2385 l 0,30.8276 c 0,8.38439 -6.85884,15.2418 -15.2436,15.2418 z m 0,0 z"
   id="path367"
   style="fill:url(#id15);fill-rule:nonzero" />
  <path
   d="m 41.1188,156.863 43.1687,0 c 4.98995,0 9.07035,5.50677 9.07035,12.2408 0,6.73442 -4.0804,12.2459 -9.07035,12.2459 l -43.1687,0 c -4.98995,0 -9.07396,-5.51145 -9.07396,-12.2459 0,-6.73406 4.084,-12.2408 9.07396,-12.2408 z m 0,0 z"
   id="path369"
   style="fill:#ffffff;fill-opacity:0.49019602;fill-rule:nonzero" />
  <path
   d="m 57.0631,202.621 c 2.39436,0.75592 4.69098,1.08772 7.1654,1.08772 10.6861,0 19.3579,-6.8574 19.3579,-15.3067 0,-8.44931 -8.67183,-15.3071 -19.3579,-15.3071 -10.6846,0 -19.3565,6.85776 -19.3565,15.3071 0,4.29895 2.24541,8.19072 5.85371,10.9685 -1.04336,2.2519 -2.08275,4.5074 -3.12611,6.76471 9.46346,-3.51417 6.30669,-2.34639 9.46346,-3.51417 z m 0,0 z"
   id="path371"
   style="fill:#ffffff;fill-rule:nonzero" />
  <path
   d="m 337.782,218.171 -30.8226,0 c -8.38439,0 -15.2432,-6.8574 -15.2432,-15.2418 l 0,-30.8276 c 0,-8.37934 6.85884,-15.2385 15.2432,-15.2385 l 30.8226,0 c 8.38439,0 15.2432,6.8592 15.2432,15.2385 l 0,30.8276 c 0,8.38439 -6.85884,15.2418 -15.2432,15.2418 z m 0,0 z"
   id="path373"
   style="fill:url(#id8);fill-rule:nonzero" />
  <path
   d="m 300.786,156.863 43.1691,0 c 4.98995,0 9.06999,5.50677 9.06999,12.2408 0,6.73442 -4.08003,12.2459 -9.06999,12.2459 l -43.1691,0 c -4.98995,0 -9.06999,-5.51145 -9.06999,-12.2459 0,-6.73406 4.08003,-12.2408 9.06999,-12.2408 z m 0,0 z"
   id="path375"
   style="fill:#ffffff;fill-opacity:0.49019602;fill-rule:nonzero" />
  <path
   d="m 345.292,182.244 c 0,1.14398 -0.22901,2.36659 -0.67153,3.64761 -0.4876,1.38165 -1.04336,2.28147 -1.6644,2.70884 l 1.5003,0.43242 0,1.71525 -1.23667,0.40212 c -0.14029,0.5215 -0.29393,1.39175 -0.45839,2.6093 -0.0187,1.28247 0.13489,2.52924 0.45839,3.73309 l 1.23667,0.55577 0,1.63988 -24.2627,12.2956 -15.6746,-13.4483 c -1.78017,-1.52014 -2.61976,-3.9859 -2.53068,-7.41497 0.0202,-1.06861 0.25931,-1.84833 0.69605,-2.32547 0.23912,-0.27374 0.78117,-0.61203 1.63988,-1.02425 0.62718,-0.30295 2.54944,-0.75593 5.77473,-1.34234 l -4.18967,-1.95797 0,-1.34631 1.61607,-0.42232 c 0.33829,-1.29258 0.50131,-2.59921 0.50131,-3.92135 0,-0.30403 -0.0292,-0.7314 -0.0739,-1.29257 l -7.86794,-1.6846 0,-1.34703 1.02425,-0.12876 c 0.37796,-0.98962 0.56117,-2.16282 0.56117,-3.51922 0,-1.38165 -0.18321,-2.57504 -0.56117,-3.57368 l -1.02425,0 0,-0.98854 14.0156,-1.58542 24.8492,1.61463 c 1.18329,0.0801 2.16174,0.60193 2.9429,1.53565 0.77467,0.94527 1.17319,2.16282 1.17319,3.66817 0,2.04308 -1.00008,3.58378 -2.98763,4.61704 1.61102,-0.0191 2.6937,0.1742 3.2509,0.58642 0.55071,0.41222 1.02785,1.24821 1.42096,2.50003 0.35776,1.12847 0.54205,2.14659 0.54205,3.0612 z m -1.26841,0.0851 c 0.0202,-1.4069 -0.27229,-2.62445 -0.88936,-3.65771 -0.56622,-0.97952 -1.17824,-1.43647 -1.84869,-1.36759 l -15.0777,1.79892 c 0.62068,1.63122 0.93372,3.42509 0.93372,5.39316 0,2.09177 -0.32314,4.22393 -0.96438,6.38567 l 15.9429,-3.75184 c 0.48255,-0.11468 0.91497,-0.63618 1.29293,-1.58542 0.37255,-0.94382 0.57632,-2.02794 0.61058,-3.2152 z m -25.7335,-11.5206 c 0.0242,-1.57496 -0.39816,-2.81271 -1.28247,-3.71758 -0.8789,-0.90956 -1.96302,-1.29257 -3.23539,-1.16274 l -12.2408,1.12343 c 0.39311,1.12847 0.59688,2.37524 0.59688,3.75689 0,1.3564 -0.20377,2.67819 -0.59688,3.94154 l 11.3616,1.83355 c 0.20882,0.0343 0.43278,0.0444 0.64124,0.0444 1.29149,0 2.39075,-0.54169 3.31437,-1.61932 0.92001,-1.08411 1.40221,-2.48488 1.44152,-4.20013 z m 8.39846,13.6874 c 0,-1.96807 -0.32711,-3.76194 -0.96835,-5.39316 l -4.61704,-0.86375 c -3.08139,0.43242 -5.22402,0.64989 -6.44157,0.64989 -0.30294,0 -0.54061,-0.0191 -0.69605,-0.0534 l -5.56122,-1.20854 c 0.0548,0.58642 0.0804,1.03434 0.0804,1.33693 0,1.32719 -0.21891,2.79287 -0.66684,4.40859 l 17.9023,7.5091 c 0.64124,-2.16174 0.96835,-4.2939 0.96835,-6.38567 z m 16.3465,13.8555 c -0.44649,-1.45558 -0.6654,-2.92271 -0.65133,-4.40714 0,-0.66179 0.15003,-1.54611 0.43241,-2.65402 l -22.1454,7.56355 c -0.35776,1.18329 -0.53195,2.57396 -0.53195,4.18967 0,1.93272 0.1933,3.83587 0.58641,5.71522 l 22.3098,-10.4073 z m -22.8962,10.4073 c -0.37291,-1.87935 -0.56622,-3.7825 -0.56622,-5.71522 0,-1.61571 0.19331,-3.00638 0.56622,-4.18967 l -13.9608,-9.17963 c -0.41222,-0.26327 -0.8194,-0.40176 -1.21251,-0.40176 -1.05346,0 -1.55476,0.84969 -1.5306,2.5534 0.0548,2.39039 0.57127,3.97581 1.5306,4.74688 l 15.1733,12.186 z m 0,0 z"
   id="path377"
   style="fill:#fff500;fill-rule:nonzero;stroke:#1f1a17;stroke-width:0.27481499" />
  <path
   d="m 251.847,218.171 -30.8226,0 c -8.38439,0 -15.2432,-6.8574 -15.2432,-15.2418 l 0,-30.8276 c 0,-8.37934 6.85884,-15.2385 15.2432,-15.2385 l 30.8226,0 c 8.38439,0 15.2432,6.8592 15.2432,15.2385 l 0,30.8276 c 0,8.38439 -6.85884,15.2418 -15.2432,15.2418 z m 0,0 z"
   id="path379"
   style="fill:url(#id4);fill-rule:nonzero" />
  <path
   d="m 214.852,156.863 43.1691,0 c 4.98995,0 9.06999,5.50677 9.06999,12.2408 0,6.73442 -4.08003,12.2459 -9.06999,12.2459 l -43.1691,0 c -4.98995,0 -9.06999,-5.51145 -9.06999,-12.2459 0,-6.73406 4.08003,-12.2408 9.06999,-12.2408 z m 0,0 z"
   id="path381"
   style="fill:#ffffff;fill-opacity:0.49019602;fill-rule:nonzero" />
  <polygon
   points="251.594,183.114 251.594,189.754 222.605,189.754 222.605,183.114 "
   id="polygon383"
   style="fill:#ffffff;fill-rule:nonzero;stroke:#ffffff;stroke-width:0.72130001" />
  <path
   d="m 232.45,180.828 2.69838,1.34595 -7.6988,15.1239 -2.69838,-1.35136 7.6988,-15.1185 z m 0,0 z"
   id="path385"
   style="fill:#ffffff;fill-rule:nonzero" />
  <path
   d="m 233.767,178.203 2.68973,1.36759 -1.31313,2.61327 -2.68829,-1.3665 1.31168,-2.61435 z m 0,0 z"
   id="path387"
   style="fill:#ffffff;fill-rule:nonzero" />
  <path
   d="m 233.767,178.203 2.68973,1.36759 0.58137,-1.17788 c 0.0992,-0.19475 -0.42773,-0.66179 -1.16815,-1.03975 -0.74042,-0.37652 -1.4224,-0.52655 -1.52158,-0.3318 l -0.58137,1.18185 z m 0,0 z"
   id="path389"
   style="fill:#ffffff;fill-rule:nonzero" />
  <path
   d="m 224.459,199.827 0.32314,-3.88059 2.63347,1.34631 -2.95661,2.53429 z m 0,0 z"
   id="path391"
   style="fill:#ffffff;fill-rule:nonzero" />
  <path
   d="m 257.846,186.905 c 0,11.4914 -9.31343,20.7994 -20.8034,20.7994 -11.4863,0 -20.7994,-9.30802 -20.7994,-20.7994 0,-11.4849 9.31307,-20.7983 20.7994,-20.7983 11.49,0 20.8034,9.31343 20.8034,20.7983 z m 0,0 z"
   id="path393"
   style="fill:none;stroke:#ffffff;stroke-width:0.72130001" />
  <path
   d="m 261.535,186.905 c 0,13.5233 -10.9648,24.4863 -24.4917,24.4863 -13.5233,0 -24.4878,-10.963 -24.4878,-24.4863 0,-13.5233 10.9645,-24.4867 24.4878,-24.4867 13.5269,0 24.4917,10.9634 24.4917,24.4867 z m 0,0 z"
   id="path395"
   style="fill:none;stroke:#1f1a17;stroke-width:0.27481499" />
  <path
   d="m 261.535,186.905 c 0,-13.5233 -10.9699,-24.4867 -24.4881,-24.4867 -13.5219,0 -24.4914,10.9634 -24.4914,24.4867 0,13.5233 10.9695,24.4863 24.4914,24.4863 13.5182,0 24.4881,-10.963 24.4881,-24.4863 z m -24.4881,-20.7983 c 11.4863,0 20.7998,9.31343 20.7998,20.7983 0,11.4863 -9.31343,20.7994 -20.7998,20.7994 -11.49,0 -20.803,-9.31307 -20.803,-20.7994 0,-11.4849 9.31307,-20.7983 20.803,-20.7983 z m 0,0 z"
   id="path397"
   style="fill:#ffffff;fill-rule:nonzero;stroke:#ffffff;stroke-width:0.72130001" />
  <path
   d="m 78.1143,323.404 -30.8276,0 c -8.37934,0 -15.2382,-6.85776 -15.2382,-15.2422 l 0,-30.8291 c 0,-8.38295 6.85884,-15.2422 15.2382,-15.2422 l 30.8276,0 c 8.38475,0 15.2436,6.8592 15.2436,15.2422 l 0,30.8291 c 0,8.38439 -6.85884,15.2422 -15.2436,15.2422 z m 0,0 z"
   id="path399"
   style="fill:url(#id12);fill-rule:nonzero" />
  <path
   d="m 41.1188,262.09 43.1687,0 c 4.98995,0 9.07035,5.51182 9.07035,12.2459 0,6.73442 -4.0804,12.2459 -9.07035,12.2459 l -43.1687,0 c -4.98995,0 -9.07396,-5.51145 -9.07396,-12.2459 0,-6.73406 4.084,-12.2459 9.07396,-12.2459 z m 0,0 z"
   id="path401"
   style="fill:#ffffff;fill-opacity:0.49019602;fill-rule:nonzero" />
  <path
   d="m 80.2226,298.087 c 0,2.00774 -1.20854,3.70748 -3.59424,5.08913 -2.09177,1.18329 -4.21888,1.77873 -6.40082,1.77873 -1.73437,0 -3.2646,-0.31809 -4.5817,-0.92363 -1.71489,-0.80028 -2.58009,-1.94787 -2.58009,-3.46477 0,-1.89305 1.29762,-3.43374 3.86148,-4.61703 2.07266,-0.96799 4.16551,-1.45054 6.30272,-1.45054 1.5205,0 2.85779,0.23298 4.02053,0.69606 l 0,-14.7762 -19.7203,8.73278 0,20.4153 c 0,1.98358 -1.17319,3.68332 -3.52427,5.11474 -2.07266,1.24677 -4.16443,1.87791 -6.30164,1.87791 -1.71525,0 -3.23034,-0.30295 -4.54744,-0.92399 -1.71489,-0.76566 -2.57901,-1.92371 -2.57901,-3.4644 0,-1.86745 1.28139,-3.39949 3.82578,-4.61704 2.07266,-0.96834 4.16551,-1.45053 6.302,-1.45053 1.45667,0 2.74924,0.22397 3.89682,0.6654 l 0,-26.3199 25.6202,-11.2775 0,28.9155 z m 0,0 z"
   id="path403"
   style="fill:#ffffff;fill-rule:nonzero" />
  <path
   d="m 164.671,323.404 -30.8287,0 c -8.37934,0 -15.2371,-6.85776 -15.2371,-15.2422 l 0,-30.8291 c 0,-8.38295 6.85776,-15.2422 15.2371,-15.2422 l 30.8287,0 c 8.38439,0 15.2422,6.8592 15.2422,15.2422 l 0,30.8291 c 0,8.38439 -6.85776,15.2422 -15.2422,15.2422 z m 0,0 z"
   id="path405"
   style="fill:url(#id7);fill-rule:nonzero" />
  <path
   d="m 127.676,262.09 43.1677,0 c 4.98959,0 9.06999,5.51182 9.06999,12.2459 0,6.73442 -4.0804,12.2459 -9.06999,12.2459 l -43.1677,0 c -4.98995,0 -9.07035,-5.51145 -9.07035,-12.2459 0,-6.73406 4.0804,-12.2459 9.07035,-12.2459 z m 0,0 z"
   id="path407"
   style="fill:#ffffff;fill-opacity:0.49019602;fill-rule:nonzero" />
  <path
   d="m 178.94,296.453 -57.0851,0 c 0.98458,-2.68468 2.66917,-4.20013 5.04477,-4.55249 0.0252,-0.58137 0.0902,-1.26696 0.19439,-2.04813 l -1.40185,0.41727 0.17924,-2.39977 -2.42104,-0.25822 1.02425,-2.12711 -2.20646,-1.10323 1.71381,-1.67053 -1.67414,-1.78882 2.2418,-0.94923 -0.84103,-2.28111 2.36154,-0.11433 0,-2.3857 2.28111,0.79018 0.90451,-2.2418 1.82814,1.52555 1.59552,-1.74951 1.14398,2.04849 2.16138,-1.02425 0.3372,2.32042 2.40085,-0.1933 -0.57127,2.40085 0.8295,0.21891 c 1.94426,-2.45062 4.56258,-3.68332 7.82863,-3.68332 3.13982,0 5.99364,1.19339 8.542,3.56863 1.54611,-0.90956 3.24585,-1.36254 5.08553,-1.36254 4.61596,0 7.23536,2.56494 7.8665,7.71394 0.45803,-0.15905 0.99864,-0.23406 1.63483,-0.23406 1.78017,0 3.17588,0.53196 4.21528,1.59552 1.03795,1.06356 1.55476,2.47586 1.55476,4.24954 0,0.48219 -0.0397,1.03939 -0.11324,1.67558 2.0319,0.50635 3.14487,1.72391 3.34467,3.64257 z m -7.81817,4.75553 c -0.39311,1.20746 -0.57127,2.61976 -0.57127,4.21528 0,1.46568 -0.63619,2.20105 -1.90856,2.20105 -1.30772,0 -1.96807,-0.63114 -1.96807,-1.90351 0,-1.86889 1.47578,-3.38398 4.4479,-4.51281 z m -14.5869,0 c -0.31304,0.98493 -0.48219,1.98358 -0.49229,2.99772 -0.0242,1.19195 -0.10423,1.94282 -0.23298,2.28111 -0.25822,0.74943 -0.82949,1.13749 -1.74915,1.13749 -1.25723,0 -1.89341,-0.63114 -1.89341,-1.90351 0,-1.89305 1.45053,-3.40959 4.36783,-4.51281 z m 6.94792,7.70385 c -0.38806,1.21755 -0.57127,2.61832 -0.57127,4.21384 0,1.47578 -0.63619,2.20249 -1.90315,2.20249 -1.28247,0 -1.93381,-0.61202 -1.93381,-1.85374 0,-1.90351 1.46676,-3.42509 4.40823,-4.56258 z m -14.5869,0 c -0.30764,0.98349 -0.46668,1.99259 -0.49085,3.00638 -0.0256,1.17824 -0.0905,1.94282 -0.19475,2.26596 -0.27373,0.76602 -0.8551,1.14398 -1.74951,1.14398 -1.28247,0 -1.93272,-0.61202 -1.93272,-1.85374 0,-1.93381 1.45053,-3.44926 4.36783,-4.56258 z m -10.9378,-28.1495 c -0.98998,-3.05723 -3.11205,-4.58783 -6.3817,-4.58783 -1.85374,0 -3.42004,0.64628 -4.73173,1.95797 -1.30664,1.29762 -1.95797,2.87799 -1.95797,4.71658 0,2.15272 0.85474,3.90692 2.54439,5.25323 0.51645,-1.69974 1.49129,-3.04605 2.92776,-4.03063 1.44152,-0.98854 3.06084,-1.48119 4.86012,-1.48119 0.69064,0 1.31277,0.0804 1.86889,0.23442 0.1439,-0.58173 0.44288,-1.26732 0.87025,-2.06256 z m 0,0 z"
   id="path409"
   style="fill:#667ab3;fill-rule:nonzero" />
  <path
   d="m 251.227,323.404 -30.824,0 c -8.38295,0 -15.2422,-6.85776 -15.2422,-15.2422 l 0,-30.8291 c 0,-8.38295 6.8592,-15.2422 15.2422,-15.2422 l 30.824,0 c 8.38439,0 15.2418,6.8592 15.2418,15.2422 l 0,30.8291 c 0,8.38439 -6.8574,15.2422 -15.2418,15.2422 z m 0,0 z"
   id="path411"
   style="fill:url(#id5);fill-rule:nonzero" />
  <path
   d="m 214.231,262.09 43.1687,0 c 4.98887,0 9.06891,5.51182 9.06891,12.2459 0,6.73442 -4.08003,12.2459 -9.06891,12.2459 l -43.1687,0 c -4.98995,0 -9.07035,-5.51145 -9.07035,-12.2459 0,-6.73406 4.0804,-12.2459 9.07035,-12.2459 z m 0,0 z"
   id="path413"
   style="fill:#ffffff;fill-opacity:0.49019602;fill-rule:nonzero" />
  <path
   d="m 260.122,311.59 -48.1028,0 0,-42.2541 48.1028,0 0,42.2541 z m -1.46063,-28.5819 0,-12.2102 -14.1847,0 0,11.4748 3.50876,-3.31942 4.71658,4.05479 5.95938,0 z m 0,5.11438 0,-4.23908 -4.94055,0 4.94055,4.23908 z m -9.46851,-5.11438 -1.13244,-0.98349 -1.05851,0.98349 2.19095,0 z m 9.46851,14.0751 0,-5.96443 -8.44426,-7.23536 -4.1298,0 -1.61066,1.49598 0,11.7038 14.1847,0 z m -15.0539,-14.0751 0,-12.2102 -15.134,0 0,12.2102 15.134,0 z m 15.0539,27.1212 0,-12.177 -14.1847,0 0,12.177 14.1847,0 z m -15.8643,-26.2459 -14.3236,0 0,6.32688 4.05623,3.36414 10.2673,-9.69103 z m 0.81038,13.1998 0,-10.8538 -11.0042,10.4163 -4.1298,-3.44421 0,3.88168 15.134,0 z m -16.0183,-14.0751 0,-12.2102 -14.1097,0 0,12.2102 14.1097,0 z m 16.0183,27.1212 0,-12.177 -15.134,0 0,12.177 15.134,0 z m -16.0183,-20.6454 0,-5.60054 -14.1097,0 0,12.027 10.9035,-9.09451 3.20618,2.66809 z m 0,7.59926 0,-4.60694 -3.20618,-2.66917 -8.70609,7.27612 11.9123,0 z m 0,13.0462 0,-12.177 -12.9758,0 -1.13388,0.95031 0,11.2267 14.1097,0 z m 0,0 z"
   id="path415"
   style="fill:#fff500;fill-rule:nonzero" />
  <path
   d="m 337.782,323.404 -30.8226,0 c -8.38439,0 -15.2432,-6.85776 -15.2432,-15.2422 l 0,-30.8291 c 0,-8.38295 6.85884,-15.2422 15.2432,-15.2422 l 30.8226,0 c 8.38439,0 15.2432,6.8592 15.2432,15.2422 l 0,30.8291 c 0,8.38439 -6.85884,15.2422 -15.2432,15.2422 z m 0,0 z"
   id="path417"
   style="fill:url(#id14);fill-rule:nonzero" />
  <path
   d="m 300.786,262.09 43.1691,0 c 4.98995,0 9.06999,5.51182 9.06999,12.2459 0,6.73442 -4.08003,12.2459 -9.06999,12.2459 l -43.1691,0 c -4.98995,0 -9.06999,-5.51145 -9.06999,-12.2459 0,-6.73406 4.08003,-12.2459 9.06999,-12.2459 z m 0,0 z"
   id="path419"
   style="fill:#ffffff;fill-opacity:0.49019602;fill-rule:nonzero" />
  <path
   d="m 322.485,268.969 c 6.77373,0 12.5488,2.38534 17.33,7.16684 4.78655,4.78619 7.17189,10.5613 7.17189,17.3346 0,6.78419 -2.38534,12.5589 -7.17189,17.3455 -4.78114,4.78114 -10.5562,7.16684 -17.33,7.16684 -6.78383,0 -12.5586,-2.3857 -17.3451,-7.16684 -4.78114,-4.78655 -7.16684,-10.5613 -7.16684,-17.3455 0,-6.77337 2.3857,-12.5485 7.16684,-17.3346 4.78655,-4.7815 10.5613,-7.16684 17.3451,-7.16684 z m 0,1.62978 c -6.32184,0 -11.7139,2.23639 -16.177,6.70485 -4.46845,4.46304 -6.70521,9.85512 -6.70521,16.1669 0,6.31715 2.23675,11.7143 6.70521,16.1773 4.46304,4.46845 9.85512,6.70376 16.177,6.70376 6.30705,0 11.7038,-2.23531 16.1672,-6.70376 4.46809,-4.46304 6.70376,-9.86017 6.70376,-16.1773 0,-6.31174 -2.23567,-11.7038 -6.70376,-16.1669 -4.46341,-4.46845 -9.86017,-6.70485 -16.1672,-6.70485 z m 0,44.1039 -2.86248,-5.69611 1.62978,0 0,-14.303 -2.45567,0 0,-2.45567 2.45567,0 0,-2.45531 2.45531,0 0,2.45531 7.70781,0 0,-1.62978 5.73542,2.85238 -5.73542,2.84769 0,-1.61463 -7.70781,0 0,14.303 1.61463,0 -2.83723,5.69611 z m -18.6568,-22.3502 0,2.24685 -2.24685,0 0,-2.24685 2.24685,0 z m 37.2642,0 2.25082,0 0,2.24685 -2.25082,0 0,-2.24685 z m -19.7409,-17.4941 0,-2.24577 2.2519,0 0,2.24577 -2.2519,0 z m -15.5653,26.9662 1.11838,1.9439 -1.9439,1.13244 -1.13244,-1.95797 1.95797,-1.11838 z m 32.2198,-18.6214 1.95797,-1.11838 1.12847,1.94282 -1.95292,1.13388 -1.13352,-1.95833 z m -7.18595,26.9561 1.95292,-1.12343 1.13244,1.95833 -1.95833,1.11838 -1.12703,-1.95328 z m -18.6124,-32.2587 -1.11838,-1.90856 1.94282,-1.16815 1.13352,1.95833 -1.95797,1.11838 z m -0.0357,31.1353 1.95797,1.12343 -1.11838,1.95328 -1.95797,-1.11838 1.11838,-1.95833 z m 18.6481,-32.2194 1.12703,-1.95797 1.92371,1.13352 -1.13352,1.94282 -1.91722,-1.11838 z m 7.25592,26.9521 1.09782,-1.9439 1.95292,1.11838 -1.12847,1.95797 -1.92226,-1.13244 z m -32.2555,-18.6427 -1.95797,-1.13244 1.13352,-1.90856 1.94282,1.11838 -1.11838,1.92263 z m 0,0 z"
   id="path421"
   style="fill:#ffffff;fill-rule:nonzero" />
  <path
   d="m 166.032,640.533 -30.8276,0 c -8.37934,0 -15.2382,-6.8574 -15.2382,-15.2367 l 0,-30.8291 c 0,-8.38439 6.85884,-15.2422 15.2382,-15.2422 l 30.8276,0 c 8.38439,0 15.2422,6.85776 15.2422,15.2422 l 0,30.8291 c 0,8.37934 -6.85776,15.2367 -15.2422,15.2367 z m 0,0 z"
   id="path423"
   style="fill:url(#id6);fill-rule:nonzero" />
  <path
   d="m 129.037,579.225 43.1691,0 c 4.98851,0 9.06891,5.51182 9.06891,12.2459 0,6.73442 -4.0804,12.2408 -9.06891,12.2408 l -43.1691,0 c -4.98995,0 -9.06999,-5.50641 -9.06999,-12.2408 0,-6.73406 4.08003,-12.2459 9.06999,-12.2459 z m 0,0 z"
   id="path425"
   style="fill:#ffffff;fill-opacity:0.49019602;fill-rule:nonzero" />
  <polygon
   points="173.904,592.553 173.904,627.223 128.107,627.223 128.107,592.553 "
   id="polygon427"
   style="fill:none;stroke:#ffffff;stroke-width:0.72130001" />
  <path
   d="m 144.468,609.888 -15.223,-15.2176 0,30.4306 15.223,-15.2129 z m 12.2751,0.81579 -4.10961,4.08003 c -0.45298,0.46704 -0.98998,0.69605 -1.62076,0.69605 -0.63619,0 -1.18221,-0.22901 -1.65033,-0.69605 l -4.084,-4.08003 -15.214,15.2126 41.8722,0 -15.1935,-15.2126 z m 0.81038,-0.81579 15.1974,15.2129 0,-30.4306 -15.1974,15.2176 z m -27.4891,-16.032 20.129,20.143 c 0.22396,0.21351 0.49229,0.32314 0.8194,0.32314 0.32314,0 0.59146,-0.10964 0.81543,-0.32314 l 20.1326,-20.143 -41.8964,0 z m -1.95833,-1.13893 45.8026,0 0,34.3418 -45.8026,0 0,-34.3418 z m 0,0 z"
   id="path429"
   style="fill:none;stroke:#ffffff;stroke-width:0.72130001" />
  <path
   d="m 78.1143,640.702 -30.8276,0 c -8.37934,0 -15.2382,-6.8592 -15.2382,-15.2422 l 0,-30.824 c 0,-8.38439 6.85884,-15.2418 15.2382,-15.2418 l 30.8276,0 c 8.38475,0 15.2436,6.8574 15.2436,15.2418 l 0,30.824 c 0,8.38295 -6.85884,15.2422 -15.2436,15.2422 z m 0,0 z"
   id="path431"
   style="fill:url(#id13);fill-rule:nonzero" />
  <path
   d="m 41.1188,579.394 43.1687,0 c 4.98995,0 9.07035,5.50641 9.07035,12.2455 0,6.73298 -4.0804,12.2408 -9.07035,12.2408 l -43.1687,0 c -4.98995,0 -9.07035,-5.50785 -9.07035,-12.2408 0,-6.73911 4.0804,-12.2455 9.07035,-12.2455 z m 0,0 z"
   id="path433"
   style="fill:#ffffff;fill-opacity:0.49019602;fill-rule:nonzero" />
  <path
   d="m 82.7025,624.968 c -0.3437,0.94382 -0.920018,2.32042 -1.7203,4.10925 -2.29013,1.85879 -4.89438,3.107 -7.82719,3.7724 -5.15405,-3.10556 -10.8296,-8.47852 -17.0014,-16.0969 -2.28652,-2.82317 -4.7714,-6.28252 -7.43552,-10.3972 -3.12611,-4.84642 -5.11835,-8.52829 -5.9785,-11.0384 1.24677,-2.73806 3.00133,-5.03972 5.2828,-6.90356 0.919658,-0.27229 2.39039,-0.55107 4.39308,-0.8093 l 6.06866,8.83124 -2.0622,6.29659 c 0.222521,2.15272 0.795233,4.01656 1.7441,5.61063 0.437829,0.78622 1.64024,2.3857 3.58306,4.78655 2.17688,2.68432 4.17416,4.20482 5.98355,4.54708 0.810381,0.17419 3.32952,0.0101 7.57005,-0.49625 l 7.39982,7.78788 z m 0,0 z"
   id="path435"
   style="fill:#ffffff;fill-rule:nonzero" />
  <path
   d="m 253.951,639.698 -30.824,0 c -8.38439,0 -15.2422,-6.85884 -15.2422,-15.2382 l 0,-30.8276 c 0,-8.38439 6.85776,-15.2432 15.2422,-15.2432 l 30.824,0 c 8.38295,0 15.2418,6.85884 15.2418,15.2432 l 0,30.8276 c 0,8.37934 -6.85884,15.2382 -15.2418,15.2382 z m 0,0 z"
   id="path437"
   style="fill:url(#id10);fill-rule:nonzero" />
  <path
   d="m 216.953,578.389 43.1691,0 c 4.98995,0 9.06999,5.51145 9.06999,12.2455 0,6.73442 -4.08003,12.2423 -9.06999,12.2423 l -43.1691,0 c -4.98851,0 -9.06891,-5.50785 -9.06891,-12.2423 0,-6.73406 4.0804,-12.2455 9.06891,-12.2455 z m 0,0 z"
   id="path439"
   style="fill:#ffffff;fill-opacity:0.49019602;fill-rule:nonzero" />
  <path
   d="m 251.242,594.879 c 0,6.79393 -5.50641,12.2956 -12.2956,12.2956 -6.78888,0 -12.2953,-5.50172 -12.2953,-12.2956 0,-6.78888 5.50641,-12.2953 12.2953,-12.2953 6.78924,0 12.2956,5.50641 12.2956,12.2953 z m 0,0 z"
   id="path441"
   style="fill:none;stroke:#ffffff;stroke-width:1.27236998" />
  <path
   d="m 219.017,631.772 39.431,0 0,-9.96584 c 0,-5.48116 -4.4836,-9.96476 -9.9644,-9.96476 l -19.5018,0 c -5.48224,0 -9.96476,4.4836 -9.96476,9.96476 l 0,9.96584 z m 0,0 z"
   id="path443"
   style="fill:none;stroke:#ffffff;stroke-width:1.27236998" />
  <path
   d="m 341.867,639.867 -30.8222,0 c -8.38475,0 -15.2436,-6.85884 -15.2436,-15.2432 l 0,-30.8226 c 0,-8.38439 6.85884,-15.2432 15.2436,-15.2432 l 30.8222,0 c 8.38475,0 15.2436,6.85884 15.2436,15.2432 l 0,30.8226 c 0,8.38439 -6.85884,15.2432 -15.2436,15.2432 z m 0,0 z"
   id="path445"
   style="fill:url(#id11);fill-rule:nonzero" />
  <path
   d="m 304.872,578.558 43.1687,0 c 4.98995,0 9.07035,5.50641 9.07035,12.2408 l 0,0.005 c 0,6.73406 -4.0804,12.2405 -9.07035,12.2405 l -43.1687,0 c -4.98995,0 -9.07035,-5.50641 -9.07035,-12.2405 l 0,-0.005 c 0,-6.73442 4.0804,-12.2408 9.07035,-12.2408 z m 0,0 z"
   id="path447"
   style="fill:#ffffff;fill-opacity:0.49019602;fill-rule:nonzero" />
  <path
   d="m 353.521,609.138 -21.4255,5.03936 -5.35241,21.5795 -5.04333,-21.4547 -21.5795,-5.3232 21.4547,-5.03972 5.3232,-21.6134 5.04333,21.4901 21.5795,5.32211 z m -22.7613,-5.07399 -3.70748,-16.4456 0,20.2437 3.70748,-3.79801 z m 17.7166,5.13385 -20.2065,0 3.7623,3.73778 16.4442,-3.73778 z m -23.074,-0.27734 -3.79801,-3.73814 -16.4406,3.73814 20.2386,0 z m 1.22765,21.5882 0,-20.2523 -3.74824,3.80774 3.74824,16.4446 z m 0,0 z"
   id="path449"
   style="fill:#ffffff;fill-rule:nonzero" />
  <path
   d="m 342.086,593.875 -9.33867,15.0892 9.24959,15.3514 -15.1033,-9.35238 -15.3374,9.2633 9.35779,-15.1033 -9.28782,-15.3529 15.1224,9.3733 15.3374,-9.26871 z m -15.8693,10.0841 -11.4849,-7.26097 11.5397,11.5347 -0.0548,-4.2737 z m 13.027,-7.17189 -11.5206,11.5206 4.27875,-0.0206 7.24185,-11.5051 0,0.005 z m -13.3094,12.9913 -4.2939,0.0357 -7.2469,11.5 11.5408,-11.5358 z m 13.0054,11.6097 -11.5448,-11.5448 0.0343,4.304 11.5055,7.24077 0.005,0 z m 0,0 z"
   id="path451"
   style="fill:#ffffff;fill-rule:nonzero" />
  <path
   d="m 78.1143,431.172 -30.8276,0 c -8.37934,0 -15.2382,-6.85884 -15.2382,-15.2432 l 0,-30.8276 c 0,-8.38439 6.85884,-15.2432 15.2382,-15.2432 l 30.8276,0 c 8.38475,0 15.2436,6.85884 15.2436,15.2432 l 0,30.8276 c 0,8.38439 -6.85884,15.2432 -15.2436,15.2432 z m 0,0 z"
   id="path453"
   style="fill:url(#id9);fill-rule:nonzero" />
  <path
   d="m 41.1188,369.857 43.1687,0 c 4.98995,0 9.07035,5.51145 9.07035,12.2459 0,6.73406 -4.0804,12.2455 -9.07035,12.2455 l -43.1687,0 c -4.98995,0 -9.07035,-5.51145 -9.07035,-12.2455 0,-6.73442 4.0804,-12.2459 9.07035,-12.2459 z m 0,0 z"
   id="path455"
   style="fill:#ffffff;fill-opacity:0.49019602;fill-rule:nonzero" />
  <path
   d="m 44.3949,385.195 34.9831,0 c 2.48957,0 4.49226,2.00269 4.49226,4.49262 l 0,23.9901 c 0,2.48993 -2.00269,4.49767 -4.49226,4.49767 l -34.9831,0 c -2.48993,0 -4.4937,-2.00774 -4.4937,-4.49767 l 0,-23.9901 c 0,-2.48993 2.00377,-4.49262 4.4937,-4.49262 z m 0,0 z"
   id="path457"
   style="fill:none;stroke:#ffffff;stroke-width:1.27236998" />
  <path
   d="m 77.0965,403.369 c 0,4.34872 -3.52932,7.87696 -7.87804,7.87696 -4.35377,0 -7.8766,-3.52824 -7.8766,-7.87696 0,-4.35377 3.52283,-7.8766 7.8766,-7.8766 4.34872,0 7.87804,3.52283 7.87804,7.8766 z m 0,0 z"
   id="path459"
   style="fill:none;stroke:#ffffff;stroke-width:1.27236998" />
  <polygon
   points="54.8899,388.694 54.8899,394.19 44.8962,394.19 44.8962,388.694 "
   id="polygon461"
   style="fill:none;stroke:#ffffff;stroke-width:1.27236998" />
  <path
   d="m 247.957,196.174 1.41086,-0.76999 2.28652,3.57801 c 0.154,0.23911 0.0941,0.55216 -0.10423,0.65134 l -1.13388,0.57127 c -0.19836,0.0992 -0.48219,-0.005 -0.60553,-0.26364 L 247.957,196.174 z m 0,0 z"
   id="path463"
   style="fill:#ffffff;fill-rule:nonzero" />
  <path
   d="m 238.712,175.898 0.78009,-0.43278 c 0.64628,-0.36245 1.55584,0.19836 2.04308,1.25723 l 6.52055,14.135 c 0.48723,1.05851 0.36281,2.196 -0.28888,2.55881 l -0.77468,0.43242 c -0.64629,0.36245 -1.56089,-0.19836 -2.04849,-1.25687 l -6.52055,-14.1342 c -0.4858,-1.05851 -0.3574,-2.19708 0.28888,-2.55953 z m 0,0 z"
   id="path465"
   style="fill:#ffffff;fill-rule:nonzero" />
  <path
   d="m 249.342,195.37 -1.42637,0.77504 -2.40445,-2.71894 2.84733,-1.55476 0.98349,3.49867 z m 0,0 z"
   id="path467"
   style="fill:#ffffff;fill-rule:nonzero" />
  <text
   x="220.118"
   y="133.63699"
   id="text469"
   style="font-size:15.90359974px;font-weight:normal;fill:#ffffff;font-family:Arial">pm</text>

  <path
   d="M 373.218,479.09 167.96,119.414 l 205.258,0 0,359.676 z m 0,0 z"
   id="path471"
   style="fill:url(#id17);fill-opacity:0.50196096;fill-rule:nonzero" />
 </g>
</svg>